<mxfile host="app.diagrams.net" modified="2021-04-20T07:44:42.046Z" agent="5.0 (Windows NT 10.0; WOW64) AppleWebKit/537.36 (KHTML, like Gecko) Chrome/89.0.4389.114 Safari/537.36" etag="QaAiZJgsYzeYtk4V0Shy" version="14.6.1" type="github" pages="3">
  <diagram id="R2lEEEUBdFMjLlhIrx00" name="Page-1">
    <mxGraphModel dx="981" dy="630" grid="1" gridSize="10" guides="1" tooltips="1" connect="1" arrows="1" fold="1" page="1" pageScale="1" pageWidth="1169" pageHeight="827" math="0" shadow="0" extFonts="Permanent Marker^https://fonts.googleapis.com/css?family=Permanent+Marker">
      <root>
        <mxCell id="0" />
        <mxCell id="1" parent="0" />
        <mxCell id="C-vyLk0tnHw3VtMMgP7b-2" value="Työntekijä" style="shape=table;startSize=30;container=1;collapsible=1;childLayout=tableLayout;fixedRows=1;rowLines=0;fontStyle=1;align=center;resizeLast=1;" parent="1" vertex="1">
          <mxGeometry x="450" y="120" width="250" height="130" as="geometry" />
        </mxCell>
        <mxCell id="C-vyLk0tnHw3VtMMgP7b-3" value="" style="shape=partialRectangle;collapsible=0;dropTarget=0;pointerEvents=0;fillColor=none;points=[[0,0.5],[1,0.5]];portConstraint=eastwest;top=0;left=0;right=0;bottom=1;" parent="C-vyLk0tnHw3VtMMgP7b-2" vertex="1">
          <mxGeometry y="30" width="250" height="30" as="geometry" />
        </mxCell>
        <mxCell id="C-vyLk0tnHw3VtMMgP7b-4" value="PK" style="shape=partialRectangle;overflow=hidden;connectable=0;fillColor=none;top=0;left=0;bottom=0;right=0;fontStyle=1;" parent="C-vyLk0tnHw3VtMMgP7b-3" vertex="1">
          <mxGeometry width="30" height="30" as="geometry" />
        </mxCell>
        <mxCell id="C-vyLk0tnHw3VtMMgP7b-5" value="order_id int NOT NULL " style="shape=partialRectangle;overflow=hidden;connectable=0;fillColor=none;top=0;left=0;bottom=0;right=0;align=left;spacingLeft=6;fontStyle=5;" parent="C-vyLk0tnHw3VtMMgP7b-3" vertex="1">
          <mxGeometry x="30" width="220" height="30" as="geometry" />
        </mxCell>
        <mxCell id="C-vyLk0tnHw3VtMMgP7b-6" value="" style="shape=partialRectangle;collapsible=0;dropTarget=0;pointerEvents=0;fillColor=none;points=[[0,0.5],[1,0.5]];portConstraint=eastwest;top=0;left=0;right=0;bottom=0;" parent="C-vyLk0tnHw3VtMMgP7b-2" vertex="1">
          <mxGeometry y="60" width="250" height="30" as="geometry" />
        </mxCell>
        <mxCell id="C-vyLk0tnHw3VtMMgP7b-7" value="FK1" style="shape=partialRectangle;overflow=hidden;connectable=0;fillColor=none;top=0;left=0;bottom=0;right=0;" parent="C-vyLk0tnHw3VtMMgP7b-6" vertex="1">
          <mxGeometry width="30" height="30" as="geometry" />
        </mxCell>
        <mxCell id="C-vyLk0tnHw3VtMMgP7b-8" value="customer_id int NOT NULL" style="shape=partialRectangle;overflow=hidden;connectable=0;fillColor=none;top=0;left=0;bottom=0;right=0;align=left;spacingLeft=6;" parent="C-vyLk0tnHw3VtMMgP7b-6" vertex="1">
          <mxGeometry x="30" width="220" height="30" as="geometry" />
        </mxCell>
        <mxCell id="C-vyLk0tnHw3VtMMgP7b-9" value="" style="shape=partialRectangle;collapsible=0;dropTarget=0;pointerEvents=0;fillColor=none;points=[[0,0.5],[1,0.5]];portConstraint=eastwest;top=0;left=0;right=0;bottom=0;" parent="C-vyLk0tnHw3VtMMgP7b-2" vertex="1">
          <mxGeometry y="90" width="250" height="30" as="geometry" />
        </mxCell>
        <mxCell id="C-vyLk0tnHw3VtMMgP7b-10" value="" style="shape=partialRectangle;overflow=hidden;connectable=0;fillColor=none;top=0;left=0;bottom=0;right=0;" parent="C-vyLk0tnHw3VtMMgP7b-9" vertex="1">
          <mxGeometry width="30" height="30" as="geometry" />
        </mxCell>
        <mxCell id="C-vyLk0tnHw3VtMMgP7b-11" value="order_date date NOT NULL" style="shape=partialRectangle;overflow=hidden;connectable=0;fillColor=none;top=0;left=0;bottom=0;right=0;align=left;spacingLeft=6;" parent="C-vyLk0tnHw3VtMMgP7b-9" vertex="1">
          <mxGeometry x="30" width="220" height="30" as="geometry" />
        </mxCell>
        <mxCell id="C-vyLk0tnHw3VtMMgP7b-13" value="Tuote" style="shape=table;startSize=30;container=1;collapsible=1;childLayout=tableLayout;fixedRows=1;rowLines=0;fontStyle=1;align=center;resizeLast=1;" parent="1" vertex="1">
          <mxGeometry x="450" y="280" width="250" height="130" as="geometry" />
        </mxCell>
        <mxCell id="C-vyLk0tnHw3VtMMgP7b-14" value="" style="shape=partialRectangle;collapsible=0;dropTarget=0;pointerEvents=0;fillColor=none;points=[[0,0.5],[1,0.5]];portConstraint=eastwest;top=0;left=0;right=0;bottom=1;" parent="C-vyLk0tnHw3VtMMgP7b-13" vertex="1">
          <mxGeometry y="30" width="250" height="30" as="geometry" />
        </mxCell>
        <mxCell id="C-vyLk0tnHw3VtMMgP7b-15" value="PK" style="shape=partialRectangle;overflow=hidden;connectable=0;fillColor=none;top=0;left=0;bottom=0;right=0;fontStyle=1;" parent="C-vyLk0tnHw3VtMMgP7b-14" vertex="1">
          <mxGeometry width="30" height="30" as="geometry" />
        </mxCell>
        <mxCell id="C-vyLk0tnHw3VtMMgP7b-16" value="shipment_id int NOT NULL " style="shape=partialRectangle;overflow=hidden;connectable=0;fillColor=none;top=0;left=0;bottom=0;right=0;align=left;spacingLeft=6;fontStyle=5;" parent="C-vyLk0tnHw3VtMMgP7b-14" vertex="1">
          <mxGeometry x="30" width="220" height="30" as="geometry" />
        </mxCell>
        <mxCell id="C-vyLk0tnHw3VtMMgP7b-17" value="" style="shape=partialRectangle;collapsible=0;dropTarget=0;pointerEvents=0;fillColor=none;points=[[0,0.5],[1,0.5]];portConstraint=eastwest;top=0;left=0;right=0;bottom=0;" parent="C-vyLk0tnHw3VtMMgP7b-13" vertex="1">
          <mxGeometry y="60" width="250" height="30" as="geometry" />
        </mxCell>
        <mxCell id="C-vyLk0tnHw3VtMMgP7b-18" value="FK1" style="shape=partialRectangle;overflow=hidden;connectable=0;fillColor=none;top=0;left=0;bottom=0;right=0;" parent="C-vyLk0tnHw3VtMMgP7b-17" vertex="1">
          <mxGeometry width="30" height="30" as="geometry" />
        </mxCell>
        <mxCell id="C-vyLk0tnHw3VtMMgP7b-19" value="order_id int NOT NULL" style="shape=partialRectangle;overflow=hidden;connectable=0;fillColor=none;top=0;left=0;bottom=0;right=0;align=left;spacingLeft=6;" parent="C-vyLk0tnHw3VtMMgP7b-17" vertex="1">
          <mxGeometry x="30" width="220" height="30" as="geometry" />
        </mxCell>
        <mxCell id="C-vyLk0tnHw3VtMMgP7b-20" value="" style="shape=partialRectangle;collapsible=0;dropTarget=0;pointerEvents=0;fillColor=none;points=[[0,0.5],[1,0.5]];portConstraint=eastwest;top=0;left=0;right=0;bottom=0;" parent="C-vyLk0tnHw3VtMMgP7b-13" vertex="1">
          <mxGeometry y="90" width="250" height="30" as="geometry" />
        </mxCell>
        <mxCell id="C-vyLk0tnHw3VtMMgP7b-21" value="" style="shape=partialRectangle;overflow=hidden;connectable=0;fillColor=none;top=0;left=0;bottom=0;right=0;" parent="C-vyLk0tnHw3VtMMgP7b-20" vertex="1">
          <mxGeometry width="30" height="30" as="geometry" />
        </mxCell>
        <mxCell id="C-vyLk0tnHw3VtMMgP7b-22" value="shipment_date date NOT NULL" style="shape=partialRectangle;overflow=hidden;connectable=0;fillColor=none;top=0;left=0;bottom=0;right=0;align=left;spacingLeft=6;" parent="C-vyLk0tnHw3VtMMgP7b-20" vertex="1">
          <mxGeometry x="30" width="220" height="30" as="geometry" />
        </mxCell>
        <mxCell id="C-vyLk0tnHw3VtMMgP7b-23" value="Työaika" style="shape=table;startSize=30;container=1;collapsible=1;childLayout=tableLayout;fixedRows=1;rowLines=0;fontStyle=1;align=center;resizeLast=1;" parent="1" vertex="1">
          <mxGeometry x="120" y="120" width="250" height="100" as="geometry" />
        </mxCell>
        <mxCell id="C-vyLk0tnHw3VtMMgP7b-24" value="" style="shape=partialRectangle;collapsible=0;dropTarget=0;pointerEvents=0;fillColor=none;points=[[0,0.5],[1,0.5]];portConstraint=eastwest;top=0;left=0;right=0;bottom=1;" parent="C-vyLk0tnHw3VtMMgP7b-23" vertex="1">
          <mxGeometry y="30" width="250" height="30" as="geometry" />
        </mxCell>
        <mxCell id="C-vyLk0tnHw3VtMMgP7b-25" value="PK" style="shape=partialRectangle;overflow=hidden;connectable=0;fillColor=none;top=0;left=0;bottom=0;right=0;fontStyle=1;" parent="C-vyLk0tnHw3VtMMgP7b-24" vertex="1">
          <mxGeometry width="30" height="30" as="geometry" />
        </mxCell>
        <mxCell id="C-vyLk0tnHw3VtMMgP7b-26" value="customer_id int NOT NULL " style="shape=partialRectangle;overflow=hidden;connectable=0;fillColor=none;top=0;left=0;bottom=0;right=0;align=left;spacingLeft=6;fontStyle=5;" parent="C-vyLk0tnHw3VtMMgP7b-24" vertex="1">
          <mxGeometry x="30" width="220" height="30" as="geometry" />
        </mxCell>
        <mxCell id="C-vyLk0tnHw3VtMMgP7b-27" value="" style="shape=partialRectangle;collapsible=0;dropTarget=0;pointerEvents=0;fillColor=none;points=[[0,0.5],[1,0.5]];portConstraint=eastwest;top=0;left=0;right=0;bottom=0;" parent="C-vyLk0tnHw3VtMMgP7b-23" vertex="1">
          <mxGeometry y="60" width="250" height="30" as="geometry" />
        </mxCell>
        <mxCell id="C-vyLk0tnHw3VtMMgP7b-28" value="" style="shape=partialRectangle;overflow=hidden;connectable=0;fillColor=none;top=0;left=0;bottom=0;right=0;" parent="C-vyLk0tnHw3VtMMgP7b-27" vertex="1">
          <mxGeometry width="30" height="30" as="geometry" />
        </mxCell>
        <mxCell id="C-vyLk0tnHw3VtMMgP7b-29" value="customer_name char(50) NOT NULL" style="shape=partialRectangle;overflow=hidden;connectable=0;fillColor=none;top=0;left=0;bottom=0;right=0;align=left;spacingLeft=6;" parent="C-vyLk0tnHw3VtMMgP7b-27" vertex="1">
          <mxGeometry x="30" width="220" height="30" as="geometry" />
        </mxCell>
        <mxCell id="vm5docJfL2NbSMwMscoh-1" value="Ostolaskut" style="shape=table;startSize=30;container=1;collapsible=1;childLayout=tableLayout;fixedRows=1;rowLines=0;fontStyle=1;align=center;resizeLast=1;" vertex="1" parent="1">
          <mxGeometry x="120" y="280" width="250" height="130" as="geometry" />
        </mxCell>
        <mxCell id="vm5docJfL2NbSMwMscoh-2" value="" style="shape=partialRectangle;collapsible=0;dropTarget=0;pointerEvents=0;fillColor=none;points=[[0,0.5],[1,0.5]];portConstraint=eastwest;top=0;left=0;right=0;bottom=1;" vertex="1" parent="vm5docJfL2NbSMwMscoh-1">
          <mxGeometry y="30" width="250" height="30" as="geometry" />
        </mxCell>
        <mxCell id="vm5docJfL2NbSMwMscoh-3" value="PK" style="shape=partialRectangle;overflow=hidden;connectable=0;fillColor=none;top=0;left=0;bottom=0;right=0;fontStyle=1;" vertex="1" parent="vm5docJfL2NbSMwMscoh-2">
          <mxGeometry width="30" height="30" as="geometry" />
        </mxCell>
        <mxCell id="vm5docJfL2NbSMwMscoh-4" value="shipment_id int NOT NULL " style="shape=partialRectangle;overflow=hidden;connectable=0;fillColor=none;top=0;left=0;bottom=0;right=0;align=left;spacingLeft=6;fontStyle=5;" vertex="1" parent="vm5docJfL2NbSMwMscoh-2">
          <mxGeometry x="30" width="220" height="30" as="geometry" />
        </mxCell>
        <mxCell id="vm5docJfL2NbSMwMscoh-5" value="" style="shape=partialRectangle;collapsible=0;dropTarget=0;pointerEvents=0;fillColor=none;points=[[0,0.5],[1,0.5]];portConstraint=eastwest;top=0;left=0;right=0;bottom=0;" vertex="1" parent="vm5docJfL2NbSMwMscoh-1">
          <mxGeometry y="60" width="250" height="30" as="geometry" />
        </mxCell>
        <mxCell id="vm5docJfL2NbSMwMscoh-6" value="FK1" style="shape=partialRectangle;overflow=hidden;connectable=0;fillColor=none;top=0;left=0;bottom=0;right=0;" vertex="1" parent="vm5docJfL2NbSMwMscoh-5">
          <mxGeometry width="30" height="30" as="geometry" />
        </mxCell>
        <mxCell id="vm5docJfL2NbSMwMscoh-7" value="order_id int NOT NULL" style="shape=partialRectangle;overflow=hidden;connectable=0;fillColor=none;top=0;left=0;bottom=0;right=0;align=left;spacingLeft=6;" vertex="1" parent="vm5docJfL2NbSMwMscoh-5">
          <mxGeometry x="30" width="220" height="30" as="geometry" />
        </mxCell>
        <mxCell id="vm5docJfL2NbSMwMscoh-8" value="" style="shape=partialRectangle;collapsible=0;dropTarget=0;pointerEvents=0;fillColor=none;points=[[0,0.5],[1,0.5]];portConstraint=eastwest;top=0;left=0;right=0;bottom=0;" vertex="1" parent="vm5docJfL2NbSMwMscoh-1">
          <mxGeometry y="90" width="250" height="30" as="geometry" />
        </mxCell>
        <mxCell id="vm5docJfL2NbSMwMscoh-9" value="" style="shape=partialRectangle;overflow=hidden;connectable=0;fillColor=none;top=0;left=0;bottom=0;right=0;" vertex="1" parent="vm5docJfL2NbSMwMscoh-8">
          <mxGeometry width="30" height="30" as="geometry" />
        </mxCell>
        <mxCell id="vm5docJfL2NbSMwMscoh-10" value="shipment_date date NOT NULL" style="shape=partialRectangle;overflow=hidden;connectable=0;fillColor=none;top=0;left=0;bottom=0;right=0;align=left;spacingLeft=6;" vertex="1" parent="vm5docJfL2NbSMwMscoh-8">
          <mxGeometry x="30" width="220" height="30" as="geometry" />
        </mxCell>
      </root>
    </mxGraphModel>
  </diagram>
  <diagram id="A8CnrOwoeJidSb-1hNe2" name="Page-2">
    <mxGraphModel dx="981" dy="591" grid="1" gridSize="10" guides="1" tooltips="1" connect="1" arrows="1" fold="1" page="1" pageScale="1" pageWidth="1169" pageHeight="827" math="0" shadow="0">
      <root>
        <mxCell id="5hGGPx97m1Oe2WC8NHgX-0" />
        <mxCell id="5hGGPx97m1Oe2WC8NHgX-1" parent="5hGGPx97m1Oe2WC8NHgX-0" />
        <mxCell id="5hGGPx97m1Oe2WC8NHgX-2" value="Personec" style="swimlane;childLayout=stackLayout;horizontal=1;startSize=30;horizontalStack=0;rounded=1;fontSize=14;fontStyle=0;strokeWidth=2;resizeParent=0;resizeLast=1;shadow=0;dashed=0;align=center;" vertex="1" parent="5hGGPx97m1Oe2WC8NHgX-1">
          <mxGeometry x="500" y="410" width="160" height="180" as="geometry" />
        </mxCell>
        <mxCell id="5hGGPx97m1Oe2WC8NHgX-5" value="Ikä&lt;br&gt;Työsuhteen kesto&lt;br&gt;Työtehtävä&lt;br&gt;Toimipaikka&lt;br&gt;Tiimi &lt;br&gt;Esimies" style="text;html=1;resizable=0;autosize=1;align=center;verticalAlign=top;points=[];fillColor=none;strokeColor=none;rounded=0;horizontal=1;labelPosition=center;verticalLabelPosition=middle;" vertex="1" parent="5hGGPx97m1Oe2WC8NHgX-2">
          <mxGeometry y="30" width="160" height="150" as="geometry" />
        </mxCell>
        <mxCell id="5hGGPx97m1Oe2WC8NHgX-6" value="Sole" style="swimlane;childLayout=stackLayout;horizontal=1;startSize=30;horizontalStack=0;rounded=1;fontSize=14;fontStyle=0;strokeWidth=2;resizeParent=0;resizeLast=1;shadow=0;dashed=0;align=center;" vertex="1" parent="5hGGPx97m1Oe2WC8NHgX-1">
          <mxGeometry x="690" y="240" width="160" height="120" as="geometry" />
        </mxCell>
        <mxCell id="5hGGPx97m1Oe2WC8NHgX-14" value="Wintime" style="swimlane;childLayout=stackLayout;horizontal=1;startSize=30;horizontalStack=0;rounded=1;fontSize=14;fontStyle=0;strokeWidth=2;resizeParent=0;resizeLast=1;shadow=0;dashed=0;align=center;html=1;" vertex="1" parent="5hGGPx97m1Oe2WC8NHgX-1">
          <mxGeometry x="310" y="240" width="180" height="120" as="geometry" />
        </mxCell>
        <mxCell id="5hGGPx97m1Oe2WC8NHgX-15" value="Laskutus / tuote&#xa;Kustannukset / tuote&#xa;" style="align=center;strokeColor=none;fillColor=none;spacingLeft=4;fontSize=12;verticalAlign=top;resizable=0;rotatable=0;part=1;" vertex="1" parent="5hGGPx97m1Oe2WC8NHgX-14">
          <mxGeometry y="30" width="180" height="90" as="geometry" />
        </mxCell>
        <mxCell id="5hGGPx97m1Oe2WC8NHgX-16" value="&lt;h1&gt;Pilotin tietomalli&lt;/h1&gt;&lt;p&gt;Tarkastelujakso 1.1. - 31.12.2020&lt;br&gt;Ostolaskutuote/-tuotteet (mikä/mitkä tuotenrot?)&lt;/p&gt;&lt;p&gt;&lt;br&gt;&lt;/p&gt;" style="text;html=1;strokeColor=none;fillColor=none;spacing=5;spacingTop=-20;whiteSpace=wrap;overflow=hidden;rounded=0;align=left;" vertex="1" parent="5hGGPx97m1Oe2WC8NHgX-1">
          <mxGeometry x="120" y="120" width="380" height="100" as="geometry" />
        </mxCell>
        <mxCell id="5hGGPx97m1Oe2WC8NHgX-7" value="Tuotteelle kohdennettu aika&lt;br&gt;Liukumasaldo" style="text;html=1;resizable=0;autosize=1;align=center;verticalAlign=top;points=[];fillColor=none;strokeColor=none;rounded=0;" vertex="1" parent="5hGGPx97m1Oe2WC8NHgX-1">
          <mxGeometry x="690" y="270" width="160" height="30" as="geometry" />
        </mxCell>
        <mxCell id="5hGGPx97m1Oe2WC8NHgX-20" value="Työväline" style="swimlane;childLayout=stackLayout;horizontal=1;startSize=30;horizontalStack=0;rounded=1;fontSize=14;fontStyle=0;strokeWidth=2;resizeParent=0;resizeLast=1;shadow=0;dashed=0;align=center;html=1;" vertex="1" parent="5hGGPx97m1Oe2WC8NHgX-1">
          <mxGeometry x="505" y="120" width="160" height="120" as="geometry" />
        </mxCell>
        <mxCell id="5hGGPx97m1Oe2WC8NHgX-21" value="Käytettävä työväline (P2p vs Rondo)" style="align=left;strokeColor=none;fillColor=none;spacingLeft=4;fontSize=12;verticalAlign=top;resizable=0;rotatable=0;part=1;" vertex="1" parent="5hGGPx97m1Oe2WC8NHgX-20">
          <mxGeometry y="30" width="160" height="90" as="geometry" />
        </mxCell>
        <mxCell id="5hGGPx97m1Oe2WC8NHgX-22" value="OSS" style="swimlane;childLayout=stackLayout;horizontal=1;startSize=30;horizontalStack=0;rounded=1;fontSize=14;fontStyle=0;strokeWidth=2;resizeParent=0;resizeLast=1;shadow=0;dashed=0;align=center;html=1;" vertex="1" parent="5hGGPx97m1Oe2WC8NHgX-1">
          <mxGeometry x="180" y="420" width="160" height="120" as="geometry" />
        </mxCell>
        <mxCell id="5hGGPx97m1Oe2WC8NHgX-23" value="Oma arvio&#xa;Esimiehen arvio" style="align=left;strokeColor=none;fillColor=none;spacingLeft=4;fontSize=12;verticalAlign=top;resizable=0;rotatable=0;part=1;" vertex="1" parent="5hGGPx97m1Oe2WC8NHgX-22">
          <mxGeometry y="30" width="160" height="90" as="geometry" />
        </mxCell>
        <mxCell id="5hGGPx97m1Oe2WC8NHgX-24" value="Henkilöstökysely" style="swimlane;childLayout=stackLayout;horizontal=1;startSize=30;horizontalStack=0;rounded=1;fontSize=14;fontStyle=0;strokeWidth=2;resizeParent=0;resizeLast=1;shadow=0;dashed=0;align=center;html=1;" vertex="1" parent="5hGGPx97m1Oe2WC8NHgX-1">
          <mxGeometry x="730" y="410" width="160" height="120" as="geometry" />
        </mxCell>
        <mxCell id="5hGGPx97m1Oe2WC8NHgX-25" value="Tiimi (Kustannuspaikka)&#xa;Kyselyn vastaukset (N)" style="align=left;strokeColor=none;fillColor=none;spacingLeft=4;fontSize=12;verticalAlign=top;resizable=0;rotatable=0;part=1;" vertex="1" parent="5hGGPx97m1Oe2WC8NHgX-24">
          <mxGeometry y="30" width="160" height="90" as="geometry" />
        </mxCell>
      </root>
    </mxGraphModel>
  </diagram>
  <diagram name="Copy of Page-2" id="TFtUK6dBh6UvRBSUyrl9">
    <mxGraphModel dx="1422" dy="857" grid="1" gridSize="10" guides="1" tooltips="1" connect="1" arrows="1" fold="1" page="1" pageScale="1" pageWidth="1169" pageHeight="827" math="0" shadow="0">
      <root>
        <mxCell id="DmSCSZCHX8pFwqYaMm3e-0" />
        <mxCell id="DmSCSZCHX8pFwqYaMm3e-1" parent="DmSCSZCHX8pFwqYaMm3e-0" />
        <mxCell id="DmSCSZCHX8pFwqYaMm3e-2" value="&quot;Tuotteen tekijä&quot;" style="swimlane;childLayout=stackLayout;horizontal=1;startSize=30;horizontalStack=0;rounded=1;fontSize=14;fontStyle=0;strokeWidth=2;resizeParent=0;resizeLast=1;shadow=0;dashed=0;align=center;" vertex="1" parent="DmSCSZCHX8pFwqYaMm3e-1">
          <mxGeometry x="500" y="540" width="160" height="180" as="geometry" />
        </mxCell>
        <mxCell id="DmSCSZCHX8pFwqYaMm3e-3" value="Tekijän ikä&lt;br&gt;Työsuhteen kesto&lt;br&gt;Työtehtävä&lt;br&gt;Toimipaikka&lt;br&gt;Tekijän tiimi &lt;br&gt;Tekijän esimies" style="text;html=1;resizable=0;autosize=1;align=center;verticalAlign=top;points=[];fillColor=none;strokeColor=none;rounded=0;horizontal=1;labelPosition=center;verticalLabelPosition=middle;" vertex="1" parent="DmSCSZCHX8pFwqYaMm3e-2">
          <mxGeometry y="30" width="160" height="150" as="geometry" />
        </mxCell>
        <mxCell id="DmSCSZCHX8pFwqYaMm3e-4" value="Aika" style="swimlane;childLayout=stackLayout;horizontal=1;startSize=30;horizontalStack=0;rounded=1;fontSize=14;fontStyle=0;strokeWidth=2;resizeParent=0;resizeLast=1;shadow=0;dashed=0;align=center;" vertex="1" parent="DmSCSZCHX8pFwqYaMm3e-1">
          <mxGeometry x="540" y="160" width="160" height="120" as="geometry" />
        </mxCell>
        <mxCell id="DmSCSZCHX8pFwqYaMm3e-8" value="Tuotteelle kohdennettu aika&lt;br&gt;Tekijän liukumasaldo" style="text;html=1;resizable=0;autosize=1;align=center;verticalAlign=top;points=[];fillColor=none;strokeColor=none;rounded=0;" vertex="1" parent="DmSCSZCHX8pFwqYaMm3e-4">
          <mxGeometry y="30" width="160" height="90" as="geometry" />
        </mxCell>
        <mxCell id="DmSCSZCHX8pFwqYaMm3e-5" value="Eurot" style="swimlane;childLayout=stackLayout;horizontal=1;startSize=30;horizontalStack=0;rounded=1;fontSize=14;fontStyle=0;strokeWidth=2;resizeParent=0;resizeLast=1;shadow=0;dashed=0;align=center;html=1;" vertex="1" parent="DmSCSZCHX8pFwqYaMm3e-1">
          <mxGeometry x="190" y="310" width="180" height="120" as="geometry" />
        </mxCell>
        <mxCell id="DmSCSZCHX8pFwqYaMm3e-6" value="Tuotteen laskutus&#xa;Tuotteen kustannukset &#xa;" style="align=center;strokeColor=none;fillColor=none;spacingLeft=4;fontSize=12;verticalAlign=top;resizable=0;rotatable=0;part=1;" vertex="1" parent="DmSCSZCHX8pFwqYaMm3e-5">
          <mxGeometry y="30" width="180" height="90" as="geometry" />
        </mxCell>
        <mxCell id="DmSCSZCHX8pFwqYaMm3e-7" value="&lt;h1&gt;Pilotin tietomalli versio 2&lt;/h1&gt;&lt;p&gt;Tarkastelujakso 1.1. - 31.12.2020&lt;br&gt;Ostolaskutuote/-tuotteet (mikä/mitkä tuotenrot?)&lt;/p&gt;&lt;p&gt;&lt;br&gt;&lt;/p&gt;" style="text;html=1;strokeColor=none;fillColor=none;spacing=5;spacingTop=-20;whiteSpace=wrap;overflow=hidden;rounded=0;align=left;" vertex="1" parent="DmSCSZCHX8pFwqYaMm3e-1">
          <mxGeometry x="120" y="120" width="380" height="100" as="geometry" />
        </mxCell>
        <mxCell id="DmSCSZCHX8pFwqYaMm3e-11" value="Osaaminen" style="swimlane;childLayout=stackLayout;horizontal=1;startSize=30;horizontalStack=0;rounded=1;fontSize=14;fontStyle=0;strokeWidth=2;resizeParent=0;resizeLast=1;shadow=0;dashed=0;align=center;html=1;fontColor=#B3B3B3;" vertex="1" parent="DmSCSZCHX8pFwqYaMm3e-1">
          <mxGeometry x="210" y="580" width="160" height="120" as="geometry" />
        </mxCell>
        <mxCell id="DmSCSZCHX8pFwqYaMm3e-12" value="Tekijän oma arvio&#xa;Esimiehen arvio" style="align=left;strokeColor=none;fillColor=none;spacingLeft=4;fontSize=12;verticalAlign=top;resizable=0;rotatable=0;part=1;labelBorderColor=none;fontColor=#B3B3B3;" vertex="1" parent="DmSCSZCHX8pFwqYaMm3e-11">
          <mxGeometry y="30" width="160" height="90" as="geometry" />
        </mxCell>
        <mxCell id="DmSCSZCHX8pFwqYaMm3e-13" value="&quot;Tekijän tyytyväisyys&quot;" style="swimlane;childLayout=stackLayout;horizontal=1;startSize=30;horizontalStack=0;rounded=1;fontSize=14;fontStyle=0;strokeWidth=2;resizeParent=0;resizeLast=1;shadow=0;dashed=0;align=center;html=1;labelBorderColor=none;fontColor=#B3B3B3;" vertex="1" parent="DmSCSZCHX8pFwqYaMm3e-1">
          <mxGeometry x="850" y="580" width="160" height="120" as="geometry" />
        </mxCell>
        <mxCell id="DmSCSZCHX8pFwqYaMm3e-14" value="Tiimi (Kustannuspaikka)&#xa;Tiimin vastaukset (N)" style="align=left;strokeColor=none;fillColor=none;spacingLeft=4;fontSize=12;verticalAlign=top;resizable=0;rotatable=0;part=1;fontColor=#B3B3B3;" vertex="1" parent="DmSCSZCHX8pFwqYaMm3e-13">
          <mxGeometry y="30" width="160" height="90" as="geometry" />
        </mxCell>
        <mxCell id="DmSCSZCHX8pFwqYaMm3e-15" value="Tuote" style="swimlane;childLayout=stackLayout;horizontal=1;startSize=30;horizontalStack=0;rounded=1;fontSize=14;fontStyle=0;strokeWidth=2;resizeParent=0;resizeLast=1;shadow=0;dashed=0;align=center;html=1;" vertex="1" parent="DmSCSZCHX8pFwqYaMm3e-1">
          <mxGeometry x="500" y="360" width="160" height="120" as="geometry" />
        </mxCell>
        <mxCell id="DmSCSZCHX8pFwqYaMm3e-16" value="Tuotteen tekijä&#xa;Työväline (Rondo vs P2P)" style="align=left;strokeColor=none;fillColor=none;spacingLeft=4;fontSize=12;verticalAlign=top;resizable=0;rotatable=0;part=1;" vertex="1" parent="DmSCSZCHX8pFwqYaMm3e-15">
          <mxGeometry y="30" width="160" height="90" as="geometry" />
        </mxCell>
        <mxCell id="DmSCSZCHX8pFwqYaMm3e-19" value="" style="endArrow=none;html=1;rounded=0;entryX=0;entryY=0.5;entryDx=0;entryDy=0;exitX=1.006;exitY=0.467;exitDx=0;exitDy=0;exitPerimeter=0;" edge="1" parent="DmSCSZCHX8pFwqYaMm3e-1" source="DmSCSZCHX8pFwqYaMm3e-3" target="DmSCSZCHX8pFwqYaMm3e-13">
          <mxGeometry relative="1" as="geometry">
            <mxPoint x="770" y="740" as="sourcePoint" />
            <mxPoint x="660" y="440" as="targetPoint" />
          </mxGeometry>
        </mxCell>
        <mxCell id="DmSCSZCHX8pFwqYaMm3e-20" value="" style="endArrow=none;html=1;rounded=0;exitX=1;exitY=0.5;exitDx=0;exitDy=0;entryX=0;entryY=0.5;entryDx=0;entryDy=0;" edge="1" parent="DmSCSZCHX8pFwqYaMm3e-1" source="DmSCSZCHX8pFwqYaMm3e-6" target="DmSCSZCHX8pFwqYaMm3e-15">
          <mxGeometry relative="1" as="geometry">
            <mxPoint x="500" y="440" as="sourcePoint" />
            <mxPoint x="660" y="440" as="targetPoint" />
          </mxGeometry>
        </mxCell>
        <mxCell id="DmSCSZCHX8pFwqYaMm3e-21" value="" style="endArrow=none;html=1;rounded=0;entryX=0.281;entryY=1.011;entryDx=0;entryDy=0;entryPerimeter=0;exitX=0.55;exitY=-0.017;exitDx=0;exitDy=0;exitPerimeter=0;" edge="1" parent="DmSCSZCHX8pFwqYaMm3e-1" source="DmSCSZCHX8pFwqYaMm3e-15" target="DmSCSZCHX8pFwqYaMm3e-8">
          <mxGeometry relative="1" as="geometry">
            <mxPoint x="500" y="440" as="sourcePoint" />
            <mxPoint x="660" y="440" as="targetPoint" />
          </mxGeometry>
        </mxCell>
        <mxCell id="DmSCSZCHX8pFwqYaMm3e-22" value="" style="endArrow=none;html=1;rounded=0;exitX=0.994;exitY=0.367;exitDx=0;exitDy=0;exitPerimeter=0;" edge="1" parent="DmSCSZCHX8pFwqYaMm3e-1" source="DmSCSZCHX8pFwqYaMm3e-12" target="DmSCSZCHX8pFwqYaMm3e-3">
          <mxGeometry relative="1" as="geometry">
            <mxPoint x="500" y="440" as="sourcePoint" />
            <mxPoint x="660" y="440" as="targetPoint" />
          </mxGeometry>
        </mxCell>
        <mxCell id="DmSCSZCHX8pFwqYaMm3e-24" value="" style="endArrow=none;html=1;rounded=0;entryX=0.5;entryY=0;entryDx=0;entryDy=0;exitX=0.5;exitY=1;exitDx=0;exitDy=0;" edge="1" parent="DmSCSZCHX8pFwqYaMm3e-1" source="DmSCSZCHX8pFwqYaMm3e-16" target="DmSCSZCHX8pFwqYaMm3e-2">
          <mxGeometry relative="1" as="geometry">
            <mxPoint x="500" y="440" as="sourcePoint" />
            <mxPoint x="660" y="440" as="targetPoint" />
          </mxGeometry>
        </mxCell>
      </root>
    </mxGraphModel>
  </diagram>
</mxfile>
